<?xml version="1.0" encoding="UTF-8"?>
<svg width="1200" height="900" xmlns="http://www.w3.org/2000/svg">
<defs>
  <style>
    .text { font-family: Arial, sans-serif; font-size: 16px; text-anchor: middle; dominant-baseline: middle; }
    .title { font-size: 20px; font-weight: bold; }
    .arrow { stroke-width: 2; fill: none; }
  </style>
</defs>
<rect width="1200" height="900" fill="white"/><text x="600" y="30" class="text title" text-anchor="middle">神经网络学习三大挑战及其相互关系</text><rect x="423.33333333333303" y="245.00000000000023" width="240" height="60" fill="#a5d8ff" stroke="#1e1e1e" stroke-width="2" rx="8"/><text x="543.333333333333" y="262.5000000000002" class="text" fill="white">神经网络</text><text x="543.333333333333" y="287.5000000000002" class="text" fill="white">学习挑战</text><rect x="222.33333333333326" y="25.666666666666856" width="200" height="110" fill="#dc2626" stroke="#1e1e1e" stroke-width="2" rx="8"/><text x="322.33333333333326" y="43.166666666666856" class="text" fill="white">数学理解挑战</text><text x="322.33333333333326" y="68.16666666666686" class="text" fill="white"></text><text x="322.33333333333326" y="93.16666666666686" class="text" fill="white">68%学习者</text><text x="322.33333333333326" y="118.16666666666686" class="text" fill="white">遇到困难</text><rect x="898.3333333333333" y="26.666666666666742" width="200" height="110" fill="#ea580c" stroke="#1e1e1e" stroke-width="2" rx="8"/><text x="998.3333333333333" y="44.16666666666674" class="text" fill="white">训练过程挑战</text><text x="998.3333333333333" y="69.16666666666674" class="text" fill="white"></text><text x="998.3333333333333" y="94.16666666666674" class="text" fill="white">60%时间</text><text x="998.3333333333333" y="119.16666666666674" class="text" fill="white">用于调试</text><rect x="413.33333333333303" y="611.6666666666667" width="200" height="110" fill="#16a34a" stroke="#1e1e1e" stroke-width="2" rx="8"/><text x="513.333333333333" y="629.1666666666667" class="text" fill="white">效果优化挑战</text><text x="513.333333333333" y="654.1666666666667" class="text" fill="white"></text><text x="513.333333333333" y="679.1666666666667" class="text" fill="white">超参数调优</text><text x="513.333333333333" y="704.1666666666667" class="text" fill="white">提升5-15%性能</text><line x1="509.27387978530555" y1="244.75181727024187" x2="385.6437529193288" y2="136.15157422258045" stroke="#dc2626" stroke-width="3" stroke-dasharray="none" class="arrow"/><polygon points="385.6437529193288,136.15157422258045 395.4500021642151,138.1105218347353 388.850379144963,145.62350899057137" fill="#dc2626"/><line x1="614.5533887934974" y1="244.75181727024182" x2="899.8398729918121" y2="123.45445994105768" stroke="#ea580c" stroke-width="3" stroke-dasharray="none" class="arrow"/><polygon points="899.8398729918121,123.45445994105768 893.8264768628063,131.44439529722038 889.9136879342768,122.24167380840107" fill="#ea580c"/><line x1="541.0266799378168" y1="305.2481827297586" x2="517.5863817332009" y2="611.181759110753" stroke="#16a34a" stroke-width="3" stroke-dasharray="none" class="arrow"/><polygon points="517.5863817332009,611.181759110753 513.2625937238774,602.1648385027831 523.2333700389485,602.9287885501154" fill="#16a34a"/><ellipse cx="193.9999999999999" cy="217.83333333333348" rx="80" ry="42.5" fill="#fecaca" stroke="#dc2626" stroke-width="2"/><text x="193.9999999999999" y="207.83333333333348" class="text">反向传播</text><text x="193.9999999999999" y="227.83333333333348" class="text">理解</text><ellipse cx="126.66666666666652" cy="-44.166666666666515" rx="80" ry="42.5" fill="#fecaca" stroke="#dc2626" stroke-width="2"/><text x="126.66666666666652" y="-54.166666666666515" class="text">梯度下降</text><text x="126.66666666666652" y="-34.166666666666515" class="text">原理</text><ellipse cx="316.6666666666665" cy="-60.83333333333326" rx="80" ry="42.5" fill="#fecaca" stroke="#dc2626" stroke-width="2"/><text x="316.6666666666665" y="-70.83333333333326" class="text">链式法则</text><text x="316.6666666666665" y="-50.83333333333326" class="text">应用</text><line x1="269.7304362412201" y1="136.15157422258045" x2="229.73259469094313" y2="178.79483456394314" stroke="#dc2626" stroke-width="2" stroke-dasharray="none" class="arrow"/><polygon points="229.73259469094313,178.79483456394314 232.01041652806074,169.05771344533986 239.30409985793833,175.89892558088027" fill="#dc2626"/><line x1="238.66904261651223" y1="26.381917551196977" x2="179.7283078999077" y2="-11.299902466343866" stroke="#dc2626" stroke-width="2" stroke-dasharray="none" class="arrow"/><polygon points="179.7283078999077,-11.299902466343866 189.71808096646254,-10.84775859683382 184.331626356024,-2.4224332779107804" fill="#dc2626"/><line x1="320.1660008015848" y1="25.181759110753234" x2="318.4692300597037" y2="-17.34410602170786" stroke="#dc2626" stroke-width="2" stroke-dasharray="none" class="arrow"/><polygon points="318.4692300597037,-17.34410602170786 323.81052195156497,-8.890077341490535 313.8184724042439,-8.491397214219493" fill="#dc2626"/><ellipse cx="866.6666666666665" cy="-73.83333333333314" rx="80" ry="24.5" fill="#fed7aa" stroke="#ea580c" stroke-width="2"/><text x="866.6666666666665" y="-73.83333333333314" class="text">梯度消失</text><ellipse cx="1049.9999999999998" cy="-70.5" rx="80" ry="24.5" fill="#fed7aa" stroke="#ea580c" stroke-width="2"/><text x="1049.9999999999998" y="-70.5" class="text">梯度爆炸</text><ellipse cx="1050" cy="229.16666666666674" rx="80" ry="42.5" fill="#fed7aa" stroke="#ea580c" stroke-width="2"/><text x="1050" y="219.16666666666674" class="text">过拟合</text><text x="1050" y="239.16666666666674" class="text">问题</text><line x1="952.5791837486836" y1="26.18175911075312" x2="887.9666450309757" y2="-49.23078029431794" stroke="#ea580c" stroke-width="2" stroke-dasharray="none" class="arrow"/><polygon points="887.9666450309757,-49.23078029431794 897.3982663945047,-45.90745087113057 889.8043680071156,-39.401091883032095" fill="#ea580c"/><line x1="1017.6365896284253" y1="26.18175911075312" x2="1041.5463711281911" y2="-45.1392560171432" stroke="#ea580c" stroke-width="2" stroke-dasharray="none" class="arrow"/><polygon points="1041.5463711281911,-45.1392560171432 1043.5343545395376,-35.33885184403833 1034.0529638526004,-38.51740979406266" fill="#ea580c"/><line x1="1019.6863232088035" y1="137.15157422258034" x2="1036.7860227321894" y2="186.2494070247206" stroke="#ea580c" stroke-width="2" stroke-dasharray="none" class="arrow"/><polygon points="1036.7860227321894,186.2494070247206 1029.215831811591,179.71547945964232 1038.6594745297355,176.42646559344496" fill="#ea580c"/><ellipse cx="341.6666666666665" cy="832.5000000000002" rx="80" ry="42.5" fill="#bbf7d0" stroke="#16a34a" stroke-width="2"/><text x="341.6666666666665" y="822.5000000000002" class="text">学习率</text><text x="341.6666666666665" y="842.5000000000002" class="text">调优</text><ellipse cx="531.6666666666665" cy="847.5" rx="80" ry="42.5" fill="#bbf7d0" stroke="#16a34a" stroke-width="2"/><text x="531.6666666666665" y="837.5" class="text">正则化</text><text x="531.6666666666665" y="857.5" class="text">技术</text><ellipse cx="711.6666666666667" cy="837.8333333333335" rx="80" ry="24.5" fill="#bbf7d0" stroke="#16a34a" stroke-width="2"/><text x="711.6666666666667" y="837.8333333333335" class="text">架构设计</text><line x1="454.99144223395604" y1="722.1515742225804" x2="380.6224429069893" y2="794.3611151780408" stroke="#16a34a" stroke-width="2" stroke-dasharray="none" class="arrow"/><polygon points="380.6224429069893,794.3611151780408 383.35264145187244,784.7410311916341 390.31877929819893,791.9154944820816" fill="#16a34a"/><line x1="519.6368170632793" y1="722.1515742225805" x2="527.6777348574274" y2="804.0527795882267" stroke="#16a34a" stroke-width="2" stroke-dasharray="none" class="arrow"/><polygon points="527.6777348574274,804.0527795882267 521.8554791708216,795.9225066088129 531.807629953999,794.9454217665908" fill="#16a34a"/><line x1="576.9132220918219" y1="722.1515742225805" x2="683.6836257268621" y2="813.9033702070926" stroke="#16a34a" stroke-width="2" stroke-dasharray="none" class="arrow"/><polygon points="683.6836257268621,813.9033702070926 673.8566465083408,812.0512148575743 680.3741497020395,804.4668788866322" fill="#16a34a"/><line x1="423.20789874667753" y1="80.72574790069751" x2="897.4587679199891" y2="81.25245843346949" stroke="#6b7280" stroke-width="2" stroke-dasharray="5,5" class="arrow"/><polygon points="897.4587679199891,81.25245843346949 888.7929661473795,86.24283714032502 888.8040722990424,76.24284330765717" fill="#6b7280"/><line x1="952.3129279204742" y1="137.15157422258034" x2="559.4678457776099" y2="611.1817591107531" stroke="#6b7280" stroke-width="2" stroke-dasharray="5,5" class="arrow"/><polygon points="559.4678457776099,611.1817591107531 561.1440868560999,601.3232492919832 568.843686263368,607.7041715582075" fill="#6b7280"/><line x1="495.30108082251934" y1="611.1817591107531" x2="340.4288199262492" y2="136.15157422258045" stroke="#6b7280" stroke-width="2" stroke-dasharray="5,5" class="arrow"/><polygon points="340.4288199262492,136.15157422258045 347.8669589014583,142.83544200893553 338.3594901153338,145.93512542516822" fill="#6b7280"/><text x="348.33333333333326" y="-194.9999999999999" class="text">神经网络学习三大挑战及其相互关系</text><text x="-141.66666666666674" y="-4.999999999999773" class="text">图例说明:</text><text x="-141.66666666666674" y="35.00000000000023" class="text">━━ 主要关系</text><text x="-141.66666666666674" y="75.00000000000023" class="text">╌╌ 相互影响</text><rect x="-141.66666666666674" y="115.00000000000023" width="30" height="30" fill="#dc2626" stroke="#dc2626" stroke-width="2" rx="8"/><text x="-96.66666666666674" y="120.00000000000023" class="text">数学理解挑战</text><rect x="-141.66666666666674" y="165.00000000000023" width="30" height="30" fill="#ea580c" stroke="#ea580c" stroke-width="2" rx="8"/><text x="-96.66666666666674" y="170.00000000000023" class="text">训练过程挑战</text><rect x="-141.66666666666674" y="215.00000000000023" width="30" height="30" fill="#16a34a" stroke="#16a34a" stroke-width="2" rx="8"/><text x="-96.66666666666674" y="220.00000000000023" class="text">效果优化挑战</text></svg>